<svg xmlns="http://www.w3.org/2000/svg" xmlns:xlink="http://www.w3.org/1999/xlink" width="16" height="16" viewBox="0 0 16 16"><defs><style>.a,.c{fill:none;stroke:#64a1c5;}.b{clip-path:url(#a);}.c{stroke-linecap:round;stroke-linejoin:round;stroke-width:1.459px;}</style><clipPath id="a"><rect class="a" width="16" height="16" transform="translate(138 365)"/></clipPath></defs><g class="b" transform="translate(-138 -365)"><g transform="translate(137.204 364.271)"><path class="c" d="M16.051,12.345v2.189a1.459,1.459,0,0,1-1.59,1.459,14.439,14.439,0,0,1-6.3-2.24A14.227,14.227,0,0,1,3.787,9.375,14.439,14.439,0,0,1,1.547,3.05,1.459,1.459,0,0,1,3,1.459H5.187A1.459,1.459,0,0,1,6.647,2.714a9.368,9.368,0,0,0,.511,2.05A1.459,1.459,0,0,1,6.829,6.3L5.9,7.23a11.673,11.673,0,0,0,4.378,4.378l.927-.927a1.459,1.459,0,0,1,1.539-.328,9.368,9.368,0,0,0,2.05.511,1.459,1.459,0,0,1,1.255,1.481Z"/></g></g></svg>